# xmcd CD database file
#
# Track frame offsets:
#	150
#	12490
#	29239
#	42617
#	55740
#	69816
#	79581
#	93364
#	106227
#	118376
#	133257
#	146987
#	160943
#	170046
#	183314
#	194382
#	205087
#	218878
#	234692
#	249307
#	263059
#	276762
#	287834
#	298274
#	307275
#
# Disc length: 4257 seconds
#
# Revision: 1
# Processed by: cddbd v1.5.2PL0 Copyright (c) Steve Scherf et al.
# Submitted via: CDex 1.77
#
DISCID=90109f19
DTITLE=Various Artist - The Melody Lingers On Disc 1
DYEAR=2005
DGENRE=Oldies
TTITLE0=Pretend - Nat King Cole
TTITLE1=Secret Love - Doris Day
TTITLE2=Singing In The Rain - Gene Kelly
TTITLE3=Side By Side - Kay Starr
TTITLE4=I'm Walking Behind You - Eddie Fisher
TTITLE5=I Believe - Frankie Laine
TTITLE6=Cry - Johnnie Ray
TTITLE7=My Truly, Truly Fair - Guy Mitchell
TTITLE8=Don't Let The Stars Get In Your Eyes - Perry Como
TTITLE9=Music! Music! Music! (Put Another Nickel In) - Teresa Brewer
TTITLE10=Stranger In Paradise - Tony Bennett
TTITLE11=You Belong To Me - Jo Stafford
TTITLE12=Sugarbush - Doris Day and Frankie Laine
TTITLE13=It Takes Two To Tango - Louis Armstrong
TTITLE14=Answer Me - David Whitfield
TTITLE15=Limelight (Terry's Theme) - Frank Chacksfield and His Orchestra
TTITLE16=Here In My Heart - Al Martino
TTITLE17=Be My Love - Mario Lanza
TTITLE18=You're Breaking My Heart - Vic Damone
TTITLE19=The Tennesse Waltz - Patti Page
TTITLE20=The Isle OF Innisfree - Bing Crosby
TTITLE21=Kiss Of Fire - Georgia Gibbs
TTITLE22=Mockin' Bird Hill - Les Paul and Mary Ford
TTITLE23=Come On-A My House - Rosemary Clooney
TTITLE24=Blue Tango - Ray Martin and His Concert Orchestra
EXTD=The Melody Lingers On - 100 unforgettable Memories YEAR: 2005
EXTT0=
EXTT1=
EXTT2=
EXTT3=
EXTT4=
EXTT5=
EXTT6=
EXTT7=
EXTT8=
EXTT9=
EXTT10=
EXTT11=
EXTT12=
EXTT13=
EXTT14=
EXTT15=
EXTT16=
EXTT17=
EXTT18=
EXTT19=
EXTT20=
EXTT21=
EXTT22=
EXTT23=
EXTT24=
PLAYORDER=
